<svg width="41" height="40" viewBox="0 0 41 40" fill="none" xmlns="http://www.w3.org/2000/svg">
<path d="M28.8334 29.9999C29.7175 29.9999 30.5653 30.3511 31.1904 30.9762C31.8156 31.6014 32.1667 32.4492 32.1667 33.3333C32.1667 34.2173 31.8156 35.0652 31.1904 35.6903C30.5653 36.3154 29.7175 36.6666 28.8334 36.6666C27.9494 36.6666 27.1015 36.3154 26.4764 35.6903C25.8513 35.0652 25.5001 34.2173 25.5001 33.3333C25.5001 31.4833 26.9834 29.9999 28.8334 29.9999ZM2.16675 3.33325H7.61675L9.18341 6.66659H33.8334C34.2754 6.66659 34.6994 6.84218 35.0119 7.15474C35.3245 7.4673 35.5001 7.89122 35.5001 8.33325C35.5001 8.61659 35.4167 8.89992 35.3001 9.16658L29.3334 19.9499C28.7667 20.9666 27.6667 21.6666 26.4167 21.6666H14.0001L12.5001 24.3833L12.4501 24.5833C12.4501 24.6938 12.494 24.7997 12.5721 24.8779C12.6503 24.956 12.7562 24.9999 12.8667 24.9999H32.1667V28.3333H12.1667C11.2827 28.3333 10.4348 27.9821 9.80973 27.3569C9.1846 26.7318 8.83341 25.884 8.83341 24.9999C8.83341 24.4166 8.98341 23.8666 9.23341 23.3999L11.5001 19.3166L5.50008 6.66659H2.16675V3.33325ZM12.1667 29.9999C13.0508 29.9999 13.8986 30.3511 14.5238 30.9762C15.1489 31.6014 15.5001 32.4492 15.5001 33.3333C15.5001 34.2173 15.1489 35.0652 14.5238 35.6903C13.8986 36.3154 13.0508 36.6666 12.1667 36.6666C11.2827 36.6666 10.4348 36.3154 9.80973 35.6903C9.1846 35.0652 8.83341 34.2173 8.83341 33.3333C8.83341 31.4833 10.3167 29.9999 12.1667 29.9999ZM27.1667 18.3333L31.8001 9.99992H10.7334L14.6667 18.3333H27.1667Z" fill="#C50404"/>
</svg>
