<svg width="41" height="40" viewBox="0 0 41 40" fill="none" xmlns="http://www.w3.org/2000/svg">
<path d="M7.16659 6.66659H13.8499V3.33325H3.83325V13.3333H7.16659V6.66659ZM7.16659 26.6666H3.83325V36.6666H13.8499V33.3333H7.16659V26.6666ZM33.8333 33.3333H27.1666V36.6666H37.1666V26.6666H33.8333V33.3333ZM27.1666 6.66659H33.8333V13.3333H37.1666V3.33325H27.1666V6.66659Z" fill="#C50404"/>
<path d="M8.83325 18.3333H18.8333V8.33325H8.83325V18.3333ZM12.1666 11.6666H15.4999V14.9999H12.1666V11.6666ZM8.83325 31.6666H18.8333V21.6666H8.83325V31.6666ZM12.1666 24.9999H15.4999V28.3333H12.1666V24.9999ZM32.1666 8.33325H22.1666V18.3333H32.1666V8.33325ZM28.8333 14.9999H25.4999V11.6666H28.8333V14.9999ZM22.1833 21.6666H25.5166V24.9999H22.1833V21.6666ZM25.5166 24.9999H28.8499V28.3333H25.5166V24.9999ZM28.8499 28.3333H32.1833V31.6666H28.8499V28.3333ZM28.8499 21.6666H32.1833V24.9999H28.8499V21.6666Z" fill="#C50404"/>
</svg>
