<svg width="35" height="30" viewBox="0 0 35 30" fill="none" xmlns="http://www.w3.org/2000/svg">
<g clip-path="url(#clip0_428_3383)">
<path fill-rule="evenodd" clip-rule="evenodd" d="M16.469 10.3662C16.7425 10.1319 17.1133 10.0002 17.5 10.0002C17.8867 10.0002 18.2576 10.1319 18.5311 10.3662L26.7809 17.4375C27.0465 17.6732 27.1935 17.989 27.1902 18.3167C27.1868 18.6445 27.0335 18.958 26.7631 19.1898C26.4927 19.4215 26.1269 19.553 25.7446 19.5558C25.3622 19.5587 24.9938 19.4327 24.7188 19.205L17.5 13.0175L10.2813 19.205C10.0062 19.4327 9.63785 19.5587 9.25548 19.5558C8.8731 19.553 8.50734 19.4215 8.23695 19.1898C7.96656 18.958 7.81319 18.6445 7.80987 18.3167C7.80655 17.989 7.95354 17.6732 8.21919 17.4375L16.469 10.3662Z" fill="white"/>
</g>
<defs>
<clipPath id="clip0_428_3383">
<rect width="35" height="30" fill="white"/>
</clipPath>
</defs>
</svg>
