<svg width="28" height="28" viewBox="0 0 28 28" fill="none" xmlns="http://www.w3.org/2000/svg">
<path d="M27.7079 26.1218L20.1559 18.5698C21.9707 16.3911 22.8756 13.5966 22.6825 10.7677C22.4894 7.93873 21.2131 5.29315 19.1191 3.38128C17.0251 1.4694 14.2746 0.438435 11.4398 0.502846C8.60505 0.567258 5.90423 1.72209 3.89922 3.7271C1.89421 5.73211 0.739377 8.43293 0.674965 11.2677C0.610554 14.1025 1.64152 16.853 3.5534 18.947C5.46527 21.041 8.11085 22.3173 10.9398 22.5104C13.7687 22.7035 16.5632 21.7986 18.7419 19.9838L26.2939 27.5358L27.7079 26.1218ZM2.70788 11.5358C2.70788 9.75573 3.23572 8.01567 4.22465 6.53563C5.21359 5.05559 6.61919 3.90203 8.26373 3.22084C9.90826 2.53966 11.7179 2.36143 13.4637 2.70869C15.2095 3.05596 16.8132 3.91313 18.0718 5.1718C19.3305 6.43047 20.1877 8.03412 20.5349 9.77995C20.8822 11.5258 20.704 13.3354 20.0228 14.9799C19.3416 16.6244 18.1881 18.0301 16.708 19.019C15.228 20.0079 13.4879 20.5358 11.7079 20.5358C9.32174 20.5331 7.0341 19.5841 5.34684 17.8968C3.65959 16.2095 2.71053 13.9219 2.70788 11.5358Z" fill="white"/>
</svg>
