<svg width="51" height="50" viewBox="0 0 51 50" fill="none" xmlns="http://www.w3.org/2000/svg">
<path d="M8.83325 37.4998C8.83325 35.2897 9.71123 33.1701 11.274 31.6073C12.8368 30.0445 14.9564 29.1665 17.1666 29.1665H33.8333C36.0434 29.1665 38.163 30.0445 39.7258 31.6073C41.2886 33.1701 42.1666 35.2897 42.1666 37.4998C42.1666 38.6049 41.7276 39.6647 40.9462 40.4461C40.1648 41.2275 39.105 41.6665 37.9999 41.6665H12.9999C11.8948 41.6665 10.835 41.2275 10.0536 40.4461C9.27224 39.6647 8.83325 38.6049 8.83325 37.4998Z" stroke="#C50404" stroke-width="2" stroke-linejoin="round"/>
<path d="M25.5 20.8333C28.9518 20.8333 31.75 18.035 31.75 14.5833C31.75 11.1315 28.9518 8.33325 25.5 8.33325C22.0482 8.33325 19.25 11.1315 19.25 14.5833C19.25 18.035 22.0482 20.8333 25.5 20.8333Z" stroke="#C50404" stroke-width="2"/>
</svg>
